<?xml version="1.0" encoding="UTF-8"?><svg xmlns="http://www.w3.org/2000/svg" viewBox="0 0 190 150"><g id="a"><rect y="25" width="190" height="100" rx="5" ry="5" style="fill: var(--svgclr);"/></g><g id="b"><path d="M185,28c1.1,0,2,.9,2,2v90c0,1.1-.9,2-2,2H5c-1.1,0-2-.9-2-2V30c0-1.1.9-2,2-2h180M185,25H5c-2.76,0-5,2.24-5,5v90c0,2.76,2.24,5,5,5h180c2.76,0,5-2.24,5-5V30c0-2.76-2.24-5-5-5h0Z" style="fill: #ffffff;"/></g><g id="c"><path d="M122.3,68.87c-.9,6.94-1.87,10.15-3.38,11.56-1.06.98-2.2,1.28-3.95,1.37-1.42.04-4.15.04-6.96-.09-.08-1.2-.57-2.83-1.34-3.9,2.81.3,5.82.34,7,.34.94,0,1.46-.04,1.95-.43.94-.73,1.63-2.83,2.28-6.98h-21.11c.85-2.06,1.83-5.01,2.64-7.75h-8.05v-3.68h35.76v3.68h-23.35l-1.26,4.07h19.97s-.08,1.2-.2,1.8ZM122.38,55.98h-26.03v-12.16h26.03v12.16ZM118.31,52.39v-5.01h-18.14v5.01h18.14Z" style="fill: var(--svgtext);"/><path d="M131.34,67.16c.98-.21,1.87-1.2,3.13-2.78.73-.77,2.12-2.66,3.7-5.1-4.31.56-5.29.77-5.9,1.11-.2-.77-.81-2.7-1.26-3.77.81-.21,1.5-1.16,2.36-2.57.89-1.37,3.78-6.77,5.37-11.78l3.58,1.8c-1.67,4.2-3.95,8.56-6.35,12.03l4.39-.39c.85-1.5,1.71-3.13,2.48-4.71l3.17,2.1c-2.4,4.41-5.33,8.82-8.3,12.5l7.4-1.37c-.12,1.07-.16,2.61-.08,3.43-10.09,2.1-11.59,2.53-12.53,3.08-.16-.77-.73-2.57-1.18-3.6ZM145.09,71.66l.53,3.34c-4.68,1.63-9.6,3.3-13.42,4.58l-.81-3.9c3.42-.86,8.62-2.48,13.71-4.02ZM160.51,73.63c1.1,2.74,2.4,4.32,3.82,4.32.98,0,1.38-1.07,1.55-4.71.77.9,1.95,1.76,2.81,2.18-.65,5.01-1.75,6.42-4.76,6.42-2.77,0-4.92-2.18-6.55-5.87-3.17,2.14-6.67,3.9-10.33,5.27-.49-1.03-1.46-2.44-2.36-3.34,4.11-1.28,8.01-3.17,11.39-5.48-.73-2.57-1.34-5.52-1.83-8.78l-7.57,1.5-.61-3.64,7.69-1.5c-.16-1.63-.33-3.3-.45-5.01l-5.78.94-.65-3.64,6.22-.98c-.16-3.04-.24-6.12-.24-9.25h3.78c-.04,2.95.04,5.87.16,8.65l9.31-1.46.65,3.55-9.76,1.58c.12,1.67.28,3.34.45,4.88l9.8-1.88.61,3.55-9.93,1.97c.37,2.61.85,4.97,1.38,7.02,2.24-1.97,4.15-4.2,5.61-6.59l3.21,1.58c-1.99,3.3-4.6,6.17-7.65,8.69ZM165.8,46.48l-2.28,2.44c-1.22-1.16-3.66-2.87-5.53-3.94l2.24-2.18c1.87.99,4.35,2.57,5.57,3.68Z" style="fill: var(--svgtext);"/><path d="M94.32,90.27h2.98v16.33h8.98v2.68h-11.96v-19.02Z" style="fill: var(--svgtext);"/><path d="M108.6,90.27h2.8v3h-2.8v-3ZM108.6,95.53h2.8v13.76h-2.8v-13.76Z" style="fill: var(--svgtext);"/><path d="M114.65,95.53h2.57v1.97h.05c.91-1.46,2.5-2.28,4.19-2.28,1.54,0,3.18.72,3.81,1.97s.63,2.18.63,4.06v8.05h-2.8v-7.73c0-1.7,0-3.98-2.47-3.98-1.16,0-2.25.69-2.65,1.54-.4.85-.53,1.78-.53,3.24v6.93h-2.8v-13.76Z" style="fill: var(--svgtext);"/><path d="M131.12,103.23c.08,2.36,1.31,4.06,3.43,4.06,1.97,0,2.57-1.54,2.85-2.42l2.83.45c-.71,2.5-2.52,4.28-5.75,4.28-5.1,0-6.23-4.28-6.23-7.12,0-3.51,1.69-7.28,6-7.28s6.21,3.45,6.11,8.02h-9.23ZM137.48,101.13c-.08-1.22-.53-3.61-3.13-3.61-2.77,0-3.18,3-3.23,3.61h6.36Z" style="fill: var(--svgtext);"/><path d="M156.81,103.89c.1.66.53,3.29,3.08,3.29,1.99,0,3.15-1.78,3.15-3.59,0-1.94-1.26-3.37-2.93-3.37-.71,0-1.26.16-1.64.27l.3-2.5c1.41.08,3.48-.53,3.48-2.81,0-1.7-1.24-2.55-2.52-2.55s-2.5.85-2.78,3l-2.67-.51c.18-.88.91-4.94,5.47-4.94,3.23,0,5.37,2.34,5.37,4.91,0,.51-.03,2.58-2.57,3.9v.05c3.1.69,3.4,3.59,3.4,4.57,0,3.56-2.8,5.98-6.13,5.98s-5.5-2.47-5.78-5.37l2.75-.34Z" style="fill: var(--svgtext);"/><path d="M21.32,90.83l8.15-1.14c.94,4.86,2.53,8.37,4.78,10.51,2.25,2.14,4.99,3.22,8.22,3.22,3.83,0,7.07-1.4,9.72-4.2,2.64-2.8,3.96-6.26,3.96-10.39s-1.22-7.19-3.67-9.75c-2.45-2.56-5.56-3.84-9.33-3.84-1.54,0-3.46.32-5.75.95l.91-7.53c.54.06.98.1,1.31.1,3.47,0,6.6-.95,9.38-2.86,2.78-1.91,4.17-4.85,4.17-8.82,0-3.15-1.01-5.75-3.03-7.82-2.02-2.07-4.64-3.1-7.84-3.1s-5.81,1.05-7.93,3.15-3.47,5.25-4.08,9.44l-8.15-1.53c1-5.75,3.26-10.21,6.79-13.37s7.93-4.74,13.18-4.74c3.62,0,6.96.82,10.01,2.46,3.05,1.64,5.38,3.87,7,6.7,1.62,2.83,2.42,5.83,2.42,9.01s-.77,5.77-2.31,8.25c-1.54,2.48-3.82,4.45-6.84,5.91,3.93.95,6.98,2.93,9.15,5.94,2.17,3,3.26,6.76,3.26,11.28,0,6.1-2.11,11.28-6.34,15.52-4.23,4.24-9.57,6.37-16.04,6.37-5.83,0-10.67-1.83-14.52-5.48-3.85-3.65-6.05-8.39-6.59-14.21Z" style="fill: var(--svgtext);"/></g></svg>