<?xml version="1.0" encoding="UTF-8"?><svg xmlns="http://www.w3.org/2000/svg" viewBox="0 0 190 150"><g id="a"><rect y="25" width="190" height="100" rx="5" ry="5" style="fill: var(--svgclr);"/></g><g id="b"><path d="M185,28c1.1,0,2,.9,2,2v90c0,1.1-.9,2-2,2H5c-1.1,0-2-.9-2-2V30c0-1.1.9-2,2-2h180M185,25H5c-2.76,0-5,2.24-5,5v90c0,2.76,2.24,5,5,5h180c2.76,0,5-2.24,5-5V30c0-2.76-2.24-5-5-5h0Z" style="fill: #ffffff;"/></g><g id="c"><path d="M129.08,68.87c-.9,6.94-1.87,10.15-3.38,11.56-1.06.98-2.2,1.28-3.95,1.37-1.42.04-4.15.04-6.96-.09-.08-1.2-.57-2.83-1.34-3.9,2.81.3,5.82.34,7,.34.94,0,1.46-.04,1.95-.43.94-.73,1.63-2.83,2.28-6.98h-21.11c.85-2.06,1.83-5.01,2.64-7.75h-8.05v-3.68h35.76v3.68h-23.35l-1.26,4.07h19.97s-.08,1.2-.2,1.8ZM129.16,55.98h-26.03v-12.16h26.03v12.16ZM125.09,52.39v-5.01h-18.14v5.01h18.14Z" style="fill: var(--svgtext);"/><path d="M138.12,67.16c.98-.21,1.87-1.2,3.13-2.78.73-.77,2.12-2.66,3.7-5.1-4.31.56-5.29.77-5.9,1.11-.2-.77-.81-2.7-1.26-3.77.81-.21,1.5-1.16,2.36-2.57.89-1.37,3.78-6.77,5.37-11.78l3.58,1.8c-1.67,4.2-3.95,8.56-6.35,12.03l4.39-.39c.85-1.5,1.71-3.13,2.48-4.71l3.17,2.1c-2.4,4.41-5.33,8.82-8.3,12.5l7.4-1.37c-.12,1.07-.16,2.61-.08,3.43-10.09,2.1-11.59,2.53-12.53,3.08-.16-.77-.73-2.57-1.18-3.6ZM151.87,71.66l.53,3.34c-4.68,1.63-9.6,3.3-13.42,4.58l-.81-3.9c3.42-.86,8.62-2.48,13.71-4.02ZM167.29,73.63c1.1,2.74,2.4,4.32,3.82,4.32.98,0,1.38-1.07,1.55-4.71.77.9,1.95,1.76,2.81,2.18-.65,5.01-1.75,6.42-4.76,6.42-2.77,0-4.92-2.18-6.55-5.87-3.17,2.14-6.67,3.9-10.33,5.27-.49-1.03-1.46-2.44-2.36-3.34,4.11-1.28,8.01-3.17,11.39-5.48-.73-2.57-1.34-5.52-1.83-8.78l-7.57,1.5-.61-3.64,7.69-1.5c-.16-1.63-.33-3.3-.45-5.01l-5.78.94-.65-3.64,6.22-.98c-.16-3.04-.24-6.12-.24-9.25h3.78c-.04,2.95.04,5.87.16,8.65l9.31-1.46.65,3.55-9.76,1.58c.12,1.67.28,3.34.45,4.88l9.8-1.88.61,3.55-9.93,1.97c.37,2.61.85,4.97,1.38,7.02,2.24-1.97,4.15-4.2,5.61-6.59l3.21,1.58c-1.99,3.3-4.6,6.17-7.65,8.69ZM172.57,46.48l-2.28,2.44c-1.22-1.16-3.66-2.87-5.53-3.94l2.24-2.18c1.87.99,4.35,2.57,5.57,3.68Z" style="fill: var(--svgtext);"/><path d="M100.68,90.27h2.82v16.33h8.51v2.68h-11.33v-19.02Z" style="fill: var(--svgtext);"/><path d="M114.09,90.27h2.65v3h-2.65v-3ZM114.09,95.53h2.65v13.76h-2.65v-13.76Z" style="fill: var(--svgtext);"/><path d="M119.7,95.53h2.44v1.97h.05c.86-1.46,2.37-2.28,3.97-2.28,1.46,0,3.01.72,3.61,1.97s.6,2.18.6,4.06v8.05h-2.65v-7.73c0-1.7,0-3.98-2.34-3.98-1.1,0-2.13.69-2.51,1.54s-.5,1.78-.5,3.24v6.93h-2.65v-13.76Z" style="fill: var(--svgtext);"/><path d="M135.19,103.23c.07,2.36,1.24,4.06,3.25,4.06,1.86,0,2.44-1.54,2.7-2.42l2.68.45c-.67,2.5-2.39,4.28-5.45,4.28-4.83,0-5.9-4.28-5.9-7.12,0-3.51,1.6-7.28,5.69-7.28s5.88,3.45,5.78,8.02h-8.75ZM141.21,101.13c-.07-1.22-.5-3.61-2.96-3.61-2.63,0-3.01,3-3.06,3.61h6.02Z" style="fill: var(--svgtext);"/><path d="M157.18,109.28v-14.34c-1.12,1.2-2.77,2.23-4.21,2.79v-2.74c.79-.35,3.82-1.99,4.9-4.81h1.96v19.1h-2.65Z" style="fill: var(--svgtext);"/><path d="M168.08,90.19c5.35,0,5.59,6.8,5.59,9.72,0,2.74-.19,9.69-5.57,9.69s-5.57-7.01-5.57-9.72c0-2.5.12-9.69,5.54-9.69ZM168.1,107.19c2.46,0,2.8-3.56,2.8-7.73,0-3.45-.48-6.83-2.82-6.83s-2.77,3.35-2.77,7.3.45,7.25,2.8,7.25Z" style="fill: var(--svgtext);"/><path d="M37.71,109.28h-7.72v-54.69c-1.86,1.97-4.3,3.94-7.32,5.91-3.02,1.97-5.73,3.45-8.13,4.43v-8.3c4.32-2.26,8.1-4.99,11.33-8.2,3.23-3.21,5.52-6.33,6.87-9.35h4.98v70.19Z" style="fill: var(--svgtext);"/><path d="M48.7,74.81c0-8.26.77-14.92,2.3-19.96,1.53-5.04,3.8-8.92,6.82-11.66,3.02-2.73,6.82-4.1,11.39-4.1,3.38,0,6.34.76,8.88,2.27s4.65,3.69,6.31,6.53c1.66,2.85,2.96,6.31,3.9,10.39.94,4.09,1.42,9.59,1.42,16.52,0,8.2-.76,14.82-2.27,19.86s-3.78,8.93-6.8,11.68c-3.02,2.75-6.83,4.12-11.44,4.12-6.07,0-10.83-2.42-14.29-7.25-4.15-5.82-6.22-15.29-6.22-28.42ZM56.64,74.81c0,11.48,1.21,19.11,3.63,22.91,2.42,3.8,5.4,5.7,8.95,5.7s6.53-1.91,8.95-5.72,3.63-11.44,3.63-22.89-1.21-19.15-3.63-22.94c-2.42-3.78-5.43-5.67-9.03-5.67s-6.38,1.67-8.5,5.01c-2.66,4.26-3.99,12.13-3.99,23.6Z" style="fill: var(--svgtext);"/></g></svg>