<?xml version="1.0" encoding="UTF-8"?><svg xmlns="http://www.w3.org/2000/svg" viewBox="0 0 190 150"><g id="a"><rect y="25" width="190" height="100" rx="5" ry="5" style="fill: var(--svgclr);"/></g><g id="b"><path d="M185,28c1.1,0,2,.9,2,2v90c0,1.1-.9,2-2,2H5c-1.1,0-2-.9-2-2V30c0-1.1.9-2,2-2h180M185,25H5c-2.76,0-5,2.24-5,5v90c0,2.76,2.24,5,5,5h180c2.76,0,5-2.24,5-5V30c0-2.76-2.24-5-5-5h0Z" style="fill: #ffffff;"/></g><g id="c"><path d="M129.08,68.87c-.9,6.94-1.87,10.15-3.38,11.56-1.06.98-2.2,1.28-3.95,1.37-1.42.04-4.15.04-6.95-.09-.08-1.2-.57-2.83-1.34-3.9,2.81.3,5.82.34,7,.34.94,0,1.46-.04,1.95-.43.94-.73,1.63-2.83,2.28-6.98h-21.11c.85-2.06,1.83-5.01,2.65-7.75h-8.05v-3.68h35.76v3.68h-23.35l-1.26,4.07h19.97s-.08,1.2-.2,1.8ZM129.16,55.98h-26.03v-12.16h26.03v12.16ZM125.09,52.39v-5.01h-18.14v5.01h18.14Z" style="fill: var(--svgtext);"/><path d="M138.12,67.16c.98-.21,1.87-1.2,3.13-2.78.73-.77,2.12-2.66,3.7-5.1-4.31.56-5.29.77-5.9,1.11-.2-.77-.81-2.7-1.26-3.77.81-.21,1.5-1.16,2.36-2.57.9-1.37,3.78-6.77,5.37-11.78l3.58,1.8c-1.67,4.2-3.95,8.56-6.35,12.03l4.39-.39c.85-1.5,1.71-3.13,2.48-4.71l3.17,2.1c-2.4,4.41-5.33,8.82-8.3,12.5l7.4-1.37c-.12,1.07-.16,2.61-.08,3.43-10.09,2.1-11.59,2.53-12.53,3.08-.16-.77-.73-2.57-1.18-3.6ZM151.87,71.66l.53,3.34c-4.68,1.63-9.6,3.3-13.42,4.58l-.81-3.9c3.42-.86,8.62-2.48,13.71-4.02ZM167.29,73.63c1.1,2.74,2.4,4.32,3.82,4.32.98,0,1.38-1.07,1.55-4.71.77.9,1.95,1.76,2.81,2.18-.65,5.01-1.75,6.42-4.76,6.42-2.77,0-4.92-2.18-6.55-5.87-3.17,2.14-6.67,3.9-10.33,5.27-.49-1.03-1.46-2.44-2.36-3.34,4.11-1.28,8.01-3.17,11.39-5.48-.73-2.57-1.34-5.52-1.83-8.78l-7.57,1.5-.61-3.64,7.69-1.5c-.16-1.63-.33-3.3-.45-5.01l-5.78.94-.65-3.64,6.22-.98c-.16-3.04-.24-6.12-.24-9.25h3.78c-.04,2.95.04,5.87.16,8.65l9.32-1.46.65,3.55-9.76,1.58c.12,1.67.28,3.34.45,4.88l9.8-1.88.61,3.55-9.92,1.97c.37,2.61.85,4.97,1.38,7.02,2.24-1.97,4.15-4.2,5.61-6.59l3.21,1.58c-1.99,3.3-4.6,6.17-7.65,8.69ZM172.58,46.48l-2.28,2.44c-1.22-1.16-3.66-2.87-5.53-3.94l2.24-2.18c1.87.99,4.35,2.57,5.57,3.68Z" style="fill: var(--svgtext);"/><path d="M100.68,90.27h2.82v16.33h8.51v2.68h-11.33v-19.02Z" style="fill: var(--svgtext);"/><path d="M114.09,90.27h2.65v3h-2.65v-3ZM114.09,95.53h2.65v13.76h-2.65v-13.76Z" style="fill: var(--svgtext);"/><path d="M119.7,95.53h2.44v1.97h.05c.86-1.46,2.37-2.28,3.97-2.28,1.46,0,3.01.72,3.61,1.97s.6,2.18.6,4.06v8.05h-2.65v-7.73c0-1.7,0-3.98-2.34-3.98-1.1,0-2.13.69-2.51,1.54-.38.85-.5,1.78-.5,3.24v6.93h-2.65v-13.76Z" style="fill: var(--svgtext);"/><path d="M135.19,103.23c.07,2.36,1.24,4.06,3.25,4.06,1.86,0,2.44-1.54,2.7-2.42l2.68.45c-.67,2.5-2.39,4.28-5.45,4.28-4.83,0-5.9-4.28-5.9-7.12,0-3.51,1.6-7.28,5.69-7.28s5.88,3.45,5.78,8.02h-8.75ZM141.21,101.13c-.07-1.22-.5-3.61-2.96-3.61-2.63,0-3.01,3-3.06,3.61h6.02Z" style="fill: var(--svgtext);"/><path d="M157.18,109.28v-14.34c-1.12,1.2-2.77,2.23-4.2,2.79v-2.74c.79-.35,3.82-1.99,4.9-4.81h1.96v19.1h-2.65Z" style="fill: var(--svgtext);"/><path d="M165.54,98.98c-.5-.19-2.51-1.04-2.51-3.9,0-2.52,1.67-4.89,5.02-4.89s5.06,2.42,5.06,4.94c0,1.94-1.05,3.24-2.46,3.88,3.08,1.19,3.08,4.2,3.08,4.83,0,3.24-2.2,5.76-5.59,5.76s-5.66-2.31-5.66-5.76c0-1.67.65-4.04,3.06-4.81v-.05ZM168.15,107.19c1.51,0,2.91-1.17,2.91-3.43,0-2.1-1.29-3.51-2.99-3.51-2.05,0-2.94,1.94-2.94,3.48,0,1.75,1.07,3.45,3.01,3.45ZM168.07,97.89c1.22,0,2.44-.88,2.44-2.63,0-1.59-1.03-2.66-2.44-2.66s-2.44,1.06-2.44,2.63c0,1.75,1.19,2.66,2.44,2.66Z" style="fill: var(--svgtext);"/><path d="M37.71,109.28h-7.72v-54.69c-1.86,1.97-4.3,3.94-7.32,5.91-3.02,1.97-5.73,3.45-8.13,4.44v-8.3c4.32-2.26,8.1-4.99,11.33-8.2,3.23-3.21,5.52-6.33,6.87-9.35h4.98v70.19Z" style="fill: var(--svgtext);"/><path d="M60.59,71.38c-3.21-1.3-5.58-3.16-7.12-5.58-1.55-2.42-2.32-5.31-2.32-8.68,0-5.09,1.64-9.36,4.93-12.83,3.29-3.46,7.67-5.2,13.13-5.2s9.91,1.77,13.26,5.32c3.35,3.54,5.02,7.86,5.02,12.94,0,3.24-.77,6.06-2.3,8.46-1.53,2.4-3.86,4.25-6.97,5.55,3.86,1.4,6.8,3.66,8.82,6.77,2.02,3.12,3.02,6.84,3.02,11.16,0,5.98-1.9,11-5.71,15.07-3.81,4.07-8.81,6.1-15.02,6.1s-11.21-2.04-15.02-6.13c-3.81-4.08-5.71-9.18-5.71-15.28,0-4.55,1.04-8.35,3.11-11.42,2.07-3.07,5.03-5.16,8.86-6.27ZM56.56,89.11c0,2.45.52,4.82,1.57,7.11,1.04,2.29,2.59,4.06,4.66,5.32,2.06,1.25,4.28,1.88,6.65,1.88,3.69,0,6.74-1.32,9.14-3.96,2.4-2.64,3.6-5.99,3.6-10.06s-1.24-7.55-3.71-10.25c-2.48-2.7-5.57-4.05-9.29-4.05s-6.65,1.34-9.03,4.01-3.58,6.01-3.58,10.01ZM59.05,56.83c0,3.31.96,6.01,2.88,8.11,1.92,2.1,4.41,3.15,7.47,3.15s5.41-1.04,7.32-3.12c1.9-2.08,2.85-4.63,2.85-7.65s-.98-5.79-2.94-7.94c-1.96-2.15-4.4-3.22-7.32-3.22s-5.39,1.05-7.34,3.15-2.92,4.61-2.92,7.53Z" style="fill: var(--svgtext);"/></g></svg>